<svg width="472" height="77" viewBox="0 0 472 77" fill="none" xmlns="http://www.w3.org/2000/svg">
<path d="M25.2609 1.81683H46.2602L71.521 75.1832H55.9282L50.0025 56.1074H21.5186L15.5928 75.1832H7.62939e-06L25.2609 1.81683ZM34.8244 12.7167L25.053 44.5788H46.4681L36.6966 12.7167H34.8244Z" fill="#000D52"/>
<path d="M108.384 75.1832V35.4601C108.384 32.3858 108.436 30.0102 108.54 28.3333C108.644 26.6564 108.904 24.5071 109.32 21.8875C109.736 19.2668 110.516 16.8734 111.659 14.7075C112.802 12.5415 114.31 10.4798 116.181 8.52337C121.517 2.79398 128.794 -0.000854805 138.012 0.138887C147.368 0.278628 154.644 3.07346 159.843 8.52337C162.269 11.0387 164.088 14.0087 165.3 17.4324C166.514 20.8561 167.207 23.703 167.379 25.9744C167.553 28.2446 167.639 31.442 167.639 35.5644V75.1821H152.878V34.3067C152.878 26.6209 152.115 21.4505 150.591 18.7944C148.027 14.2528 143.833 11.9815 138.012 11.9815C132.399 11.9815 128.241 14.2528 125.537 18.7944C124.774 20.1918 124.202 21.8687 123.822 23.8251C123.441 25.7814 123.232 27.3541 123.198 28.5419C123.164 29.7297 123.146 31.6516 123.146 34.3067V75.1821H108.385L108.384 75.1832Z" fill="#000D52"/>
<path d="M229.763 1.81683H250.762L276.023 75.1832H260.43L254.504 56.1074H226.021L220.095 75.1832H204.502L229.763 1.81683ZM239.326 12.7167L229.555 44.5788H250.97L241.199 12.7167H239.326Z" fill="#000D52"/>
<path d="M338.147 1.81683C338.286 1.81683 338.943 1.81683 340.123 1.81683C341.301 1.81683 342.028 1.81683 342.305 1.81683C342.582 1.81683 343.275 1.83456 344.384 1.86897C345.493 1.90338 346.255 1.93884 346.671 1.97325C347.087 2.00767 347.797 2.06085 348.802 2.13072C349.807 2.20059 350.586 2.28819 351.141 2.39248C351.695 2.49676 352.405 2.6365 353.271 2.8117C354.137 2.98586 354.883 3.17878 355.506 3.3884C356.13 3.59801 356.823 3.85976 357.586 4.1747C358.348 4.48964 359.041 4.82127 359.665 5.17062C362.714 6.77765 365.26 9.13552 367.305 12.2453C369.35 15.3551 370.372 19.1104 370.372 23.5122C370.372 29.5211 368.258 34.2723 364.031 37.7658C362.159 39.303 359.907 40.4209 357.273 41.1196C358.798 41.8882 359.976 42.7965 360.808 43.8446C361.639 44.8927 362.609 46.5351 363.718 48.771L375.881 75.1832H359.871L350.724 52.9632C349.615 50.0985 348.298 48.1067 346.774 46.9888C345.249 46.0106 342.927 45.5215 339.808 45.5215H328.372V75.1832H313.923V1.81683H338.147ZM328.376 12.7167V34.727H341.681C346.394 34.727 349.756 33.9584 351.765 32.4212C354.329 30.4649 355.612 27.5647 355.612 23.7218C355.612 19.8789 354.329 16.9788 351.765 15.0224C349.686 13.4852 346.29 12.7167 341.578 12.7167H328.376Z" fill="#000D52"/>
<path d="M412.745 1.81683H427.506V42.273C427.506 44.9281 427.524 46.8501 427.558 48.0379C427.592 49.2257 427.801 50.7972 428.182 52.7547C428.563 54.711 429.135 56.3879 429.897 57.7854C432.322 62.327 436.48 64.5983 442.372 64.5983C448.193 64.5983 452.387 62.328 454.951 57.7854C456.475 55.1303 457.238 49.9598 457.238 42.273V1.81683H471.999V41.4346C471.999 45.5569 471.912 48.7543 471.739 51.0246C471.567 53.2959 470.874 56.1429 469.66 59.5665C468.448 62.9902 466.629 65.9602 464.203 68.4756C459.005 73.9255 451.729 76.7203 442.372 76.8601C433.155 76.9998 425.877 74.205 420.541 68.4756C418.67 66.5192 417.163 64.4575 416.019 62.2915C414.875 60.1255 414.096 57.7322 413.68 55.1115C413.265 52.4908 413.005 50.3426 412.9 48.6657C412.796 46.9888 412.744 44.6132 412.744 41.5389V1.81578L412.745 1.81683Z" fill="#000D52"/>
</svg>
